<?xml version="1.0" encoding="UTF-8" standalone="no"?>
<!-- Created with Inkscape (http://www.inkscape.org/) -->
<svg
   xmlns:dc="http://purl.org/dc/elements/1.1/"
   xmlns:cc="http://web.resource.org/cc/"
   xmlns:rdf="http://www.w3.org/1999/02/22-rdf-syntax-ns#"
   xmlns:svg="http://www.w3.org/2000/svg"
   xmlns="http://www.w3.org/2000/svg"
   xmlns:sodipodi="http://sodipodi.sourceforge.net/DTD/sodipodi-0.dtd"
   xmlns:inkscape="http://www.inkscape.org/namespaces/inkscape"
   width="500"
   height="500"
   id="svg2"
   sodipodi:version="0.32"
   inkscape:version="0.45.1"
   version="1.0"
   sodipodi:docbase="C:\Documents and Settings\Nevit\Belgelerim\mandala"
   sodipodi:docname="Mandala 9.svg"
   inkscape:output_extension="org.inkscape.output.svg.inkscape">
  <defs
     id="defs4" />
  <sodipodi:namedview
     id="base"
     pagecolor="#ffffff"
     bordercolor="#666666"
     borderopacity="1.0"
     gridtolerance="10000"
     guidetolerance="10"
     objecttolerance="10"
     inkscape:pageopacity="0.0"
     inkscape:pageshadow="2"
     inkscape:zoom="0.35"
     inkscape:cx="375"
     inkscape:cy="191.17882"
     inkscape:document-units="px"
     inkscape:current-layer="layer1"
     inkscape:window-width="760"
     inkscape:window-height="573"
     inkscape:window-x="132"
     inkscape:window-y="161" />
  <metadata
     id="metadata7">
    <rdf:RDF>
      <cc:Work
         rdf:about="">
        <dc:format>image/svg+xml</dc:format>
        <dc:type
           rdf:resource="http://purl.org/dc/dcmitype/StillImage" />
      </cc:Work>
    </rdf:RDF>
  </metadata>
  <g
     inkscape:label="Layer 1"
     inkscape:groupmode="layer"
     id="layer1"
     transform="translate(-98.571419,-242.36219)">
    <path
       style="fill:#000000"
       d="M 297.51883,734.61219 C 293.39071,730.34969 288.92464,725.61331 287.59422,724.08689 L 285.17525,721.3116 L 292.09652,714.33689 C 295.90321,710.50081 299.25485,707.36394 299.54459,707.36608 C 299.83435,707.36821 304.34641,710.79263 309.57141,714.9759 C 314.79641,719.15916 320.08392,722.97128 321.32141,723.44726 C 322.55892,723.92325 323.57141,724.78399 323.57141,725.36003 C 323.57141,727.1129 308.39806,742.36219 306.65393,742.36219 C 305.75773,742.36219 301.64694,738.87469 297.51883,734.61219 z M 312.48099,732.17777 L 317.65223,726.49335 L 308.87259,719.42777 C 304.04378,715.5417 299.84428,712.36219 299.54038,712.36219 C 299.23648,712.36219 297.0327,714.35433 294.64309,716.78916 L 290.29835,721.21612 L 298.18488,729.7807 C 302.52248,734.49122 306.35004,738.23659 306.69059,738.10374 C 307.03114,737.97089 309.63683,735.3042 312.48099,732.17777 z M 354.07576,734.54715 C 341.49553,731.27204 335.99733,729.41079 335.80507,728.36219 C 335.65381,727.53719 339.18549,722.22444 343.65327,716.55607 C 349.93994,708.58002 352.25053,706.31917 353.87327,706.55607 C 356.14372,706.88754 377.87233,735.94426 377.25653,737.82549 C 376.59488,739.84676 371.86045,739.1772 354.07576,734.54715 z M 369.93121,733.11219 C 366.97688,728.24184 354.26872,711.36219 353.55631,711.36219 C 351.92231,711.36219 340.52219,726.84065 341.82842,727.28568 C 344.45477,728.18047 368.13754,734.18513 369.38044,734.27137 C 370.17375,734.32641 370.39072,733.86974 369.93121,733.11219 z M 109.58775,730.39271 C 108.16141,727.72756 108.6621,683.16386 110.12385,682.67745 C 110.70269,682.48483 122.71245,692.0202 136.81221,703.86717 C 159.57426,722.9924 162.42495,725.71286 162.24129,728.13464 L 162.03443,730.86219 L 147.55292,731.48653 C 139.58809,731.82992 128.02475,732.16742 121.8566,732.23653 C 111.65215,732.35087 110.54683,732.18476 109.58775,730.39271 z M 146.30286,727.71451 L 158.34832,727.06683 L 135.94804,708.21451 C 123.62789,697.84573 113.32809,689.36219 113.05959,689.36219 C 112.79109,689.36219 112.57141,698.13719 112.57141,708.86219 L 112.57141,728.36219 L 123.41441,728.36219 C 129.37806,728.36219 139.67786,728.07073 146.30286,727.71451 z M 475.23809,731.69552 C 474.87142,731.32886 474.57141,730.66584 474.57141,730.22215 C 474.57141,729.77846 480.98391,724.60302 488.82141,718.72117 C 496.65891,712.83933 505.21403,706.25616 507.83277,704.09192 C 510.45152,701.92768 513.17933,700.38149 513.89455,700.65595 C 514.60977,700.93041 517.55593,707.25709 520.44156,714.71524 C 527.79773,733.72789 529.4027,732.36219 499.70289,732.36219 C 486.61391,732.36219 475.60474,732.06219 475.23809,731.69552 z M 518.96469,721.61219 C 517.54044,717.89969 515.70202,712.94969 514.87929,710.61219 C 514.05655,708.27469 512.96961,706.36219 512.46387,706.36219 C 511.63548,706.36219 488.16726,723.76848 484.60712,727.02342 C 483.37916,728.14614 486.24233,728.36219 502.34853,728.36219 L 521.55422,728.36219 L 518.96469,721.61219 z M 539.07141,731.36219 C 538.20365,729.95811 537.74269,730.55645 560.76849,703.19861 C 579.28802,681.19486 581.87314,678.5049 584.32136,678.6906 L 587.07141,678.8992 L 587.94698,704.3023 C 588.77298,728.26777 588.71973,729.78058 587.00584,731.03379 C 584.75314,732.68102 540.07567,732.9871 539.07141,731.36219 z M 584.46552,714.61219 C 584.40728,707.04969 584.06978,696.81764 583.71553,691.8743 L 583.07141,682.88642 L 565.01831,704.3743 C 555.08911,716.19264 546.62506,726.42469 546.20931,727.11219 C 545.61474,728.09535 549.6287,728.36219 565.0124,728.36219 L 584.57141,728.36219 L 584.46552,714.61219 z M 198.07141,730.64278 C 189.22348,730.38132 186.82686,729.99122 185.82141,728.64883 C 184.94827,727.48307 184.57141,722.35513 184.57141,711.63968 C 184.57141,698.49657 184.80071,696.21143 186.17234,695.68509 C 187.05285,695.34721 188.06535,695.50769 188.42234,696.04173 C 188.77933,696.57577 198.52142,704.15507 210.07141,712.88462 C 221.62141,721.61418 231.07141,729.23031 231.07141,729.80937 C 231.07141,730.91612 218.26611,731.23952 198.07141,730.64278 z M 222.48809,727.03041 C 222.25891,726.84794 214.53392,720.9712 205.32141,713.971 L 188.57141,701.24336 L 188.57141,713.76071 L 188.57141,726.27806 L 196.32141,726.61888 C 208.78861,727.16715 222.93929,727.3897 222.48809,727.03041 z M 411.36277,728.37378 C 402.22279,725.61859 396.99035,715.94751 399.53227,706.50755 C 401.74798,698.27904 407.60301,694.04232 416.77036,694.03402 C 428.92796,694.02301 436.75569,704.53672 433.52435,716.53697 C 431.05078,725.72308 420.77557,731.21121 411.36277,728.37378 z M 421.25632,724.29558 C 427.54111,721.91433 431.47246,714.74113 430.04777,708.25456 C 427.74894,697.78802 413.12686,694.15965 406.23818,702.34637 C 397.1691,713.12437 408.19799,729.24324 421.25632,724.29558 z M 236.36277,712.37378 C 227.2228,709.61859 221.99035,699.94751 224.53227,690.50755 C 226.74798,682.27904 232.60301,678.04232 241.77036,678.03402 C 253.92796,678.02301 261.75568,688.53672 258.52436,700.53697 C 256.05078,709.72308 245.77557,715.21121 236.36277,712.37378 z M 246.25631,708.29558 C 252.54111,705.91433 256.47246,698.74113 255.04777,692.25456 C 252.74893,681.78802 238.12686,678.15965 231.23817,686.34637 C 222.16909,697.12437 233.19799,713.24324 246.25631,708.29558 z M 304.20955,705.11219 C 303.43516,703.87469 297.08964,692.96219 290.10838,680.86219 C 283.12713,668.76219 277.06996,658.50431 276.64801,658.06691 C 276.22608,657.6295 263.79481,660.00059 249.02299,663.33598 C 223.356,669.13144 222.088,669.32189 220.42574,667.63126 C 219.46909,666.65827 216.35902,657.98719 213.5145,648.36219 C 210.66997,638.73719 208.23596,630.74155 208.1056,630.59411 C 207.97524,630.44667 199.13923,627.16561 188.47,623.30288 C 177.80078,619.44014 168.47452,615.68531 167.74498,614.95881 C 166.64355,613.86196 167.67674,608.95657 173.83577,586.04084 L 181.25298,558.44378 L 157.67738,543.57361 C 137.37662,530.76902 134.07407,528.34293 133.9023,526.10813 C 133.77349,524.43225 136.69678,518.26071 142.15396,508.68751 C 146.80209,500.53358 150.85268,492.92393 151.15526,491.77716 C 151.52332,490.38228 148.68893,483.62062 142.59218,471.34922 C 137.57991,461.26061 133.61226,452.12489 133.77518,451.04762 C 133.98502,449.6602 141.07123,445.02238 158.07141,435.1461 C 171.27142,427.47755 182.44601,420.84194 182.90385,420.4003 C 183.36169,419.95866 180.98751,407.5311 177.6279,392.78348 C 171.78308,367.1266 171.59614,365.89471 173.29547,364.2329 C 174.27224,363.2777 182.94641,360.14553 192.57141,357.27253 C 202.19641,354.39953 210.38606,351.56732 210.77061,350.97872 C 211.15518,350.39013 214.47385,341.4691 218.14544,331.15422 C 221.81705,320.83933 225.40588,311.91453 226.12064,311.32133 C 227.07866,310.52625 234.64346,312.18417 254.90387,317.62952 L 282.38751,325.01626 L 285.93859,319.43923 C 287.89169,316.37186 294.59157,305.77015 300.82722,295.87989 C 313.46646,275.83303 314.20966,275.25038 321.42374,279.73269 C 328.48176,284.11805 349.30677,295.36219 350.37075,295.36219 C 350.96281,295.36219 359.68649,291.29548 369.75669,286.32506 C 379.8269,281.35463 388.94235,277.41713 390.01327,277.57506 C 391.38886,277.77791 396.08608,284.95767 406.01591,302.03528 C 413.74643,315.33048 420.35152,326.4856 420.6939,326.82442 C 421.03626,327.16325 433.39016,324.71428 448.14705,321.38226 C 473.78805,315.59266 475.05483,315.40249 476.7171,317.09312 C 477.67375,318.06611 480.78768,326.73719 483.63696,336.36219 C 486.48622,345.98719 489.31416,354.17683 489.92126,354.56139 C 490.52834,354.94595 499.4645,358.26462 509.77939,361.93622 C 520.09428,365.60782 529.02233,369.20059 529.61952,369.92016 C 530.42423,370.88976 528.79323,378.35854 523.31979,398.76855 L 515.93427,426.30861 L 539.48765,441.16478 C 560.05126,454.13515 563.06708,456.35961 563.24612,458.68899 C 563.3819,460.45551 560.43045,466.7276 554.5113,477.25119 C 549.59437,485.99297 545.57141,493.60575 545.57141,494.16847 C 545.57141,494.7312 549.63042,503.44249 554.59141,513.5269 C 559.55242,523.61131 563.48992,532.75913 563.34141,533.85538 C 563.14548,535.3018 556.42882,539.70416 538.85629,549.90384 C 525.53796,557.63424 514.36616,564.23412 514.03003,564.57023 C 513.69393,564.90635 516.1649,577.23536 519.52111,591.96804 C 525.36002,617.59896 525.54668,618.82967 523.84736,620.49148 C 522.87059,621.44668 514.19641,624.57258 504.57141,627.43791 C 494.94641,630.30324 486.94254,632.74976 486.78504,632.8746 C 486.62753,632.99945 483.36937,641.80233 479.54466,652.43656 C 475.71996,663.07078 471.97938,672.38279 471.23228,673.1299 C 470.08775,674.27442 465.55974,673.32638 442.47264,667.10843 C 415.16988,659.75508 415.06602,659.73599 413.5722,661.79538 C 412.74761,662.93212 405.98018,673.52895 398.53344,685.34388 C 386.76845,704.01013 384.64521,706.85238 382.33318,707.03009 C 380.57213,707.16545 374.32971,704.21494 363.87193,698.30432 C 355.18164,693.39266 347.50418,689.37137 346.81089,689.36811 C 346.1176,689.36486 337.45984,693.41219 327.57141,698.36219 C 317.68299,703.31219 308.69811,707.36219 307.60499,707.36219 C 306.51188,707.36219 304.98393,706.34969 304.20955,705.11219 z M 327.77671,693.80355 C 346.8418,684.35867 347.10441,684.26429 349.84414,685.87351 C 363.95099,694.15936 381.19186,703.3363 382.03198,703.00639 C 382.60368,702.7819 389.74378,691.97011 397.8989,678.98021 C 406.05402,665.9903 413.02903,655.36773 413.3989,655.37451 C 413.76878,655.38129 426.36938,658.69961 441.40024,662.74857 C 468.43518,670.03114 468.73907,670.08747 469.65995,667.98625 C 470.17195,666.81802 473.46148,657.76219 476.97001,647.86219 L 483.34916,629.86219 L 502.07724,624.16191 C 512.37768,621.02676 520.97045,618.29648 521.17231,618.09462 C 521.37418,617.89276 518.80287,605.70874 515.45831,591.01902 C 512.11376,576.3293 509.59261,563.75959 509.8558,563.08632 C 510.11896,562.41305 520.72036,555.84943 533.41446,548.50051 C 546.10854,541.15158 557.22666,534.60356 558.12136,533.94933 C 559.56929,532.89058 558.6847,530.62249 550.07335,513.31418 C 543.01474,499.1268 540.65222,493.46206 541.33645,492.36536 C 546.77153,483.65402 559.55715,459.77207 559.2316,458.93949 C 558.9999,458.34697 548.18158,451.17256 535.19088,442.99635 C 522.20018,434.82015 511.57695,427.84515 511.58374,427.49635 C 511.59051,427.14756 514.90894,414.56386 518.95802,399.53256 C 525.40061,375.61587 526.11712,372.1243 524.6957,371.57324 C 523.80233,371.22692 514.74642,367.94461 504.57141,364.27924 L 486.07141,357.61491 L 480.42172,338.92218 C 477.31438,328.64118 474.60141,320.05885 474.39291,319.85034 C 474.1844,319.64183 461.97027,322.18756 447.2504,325.50751 C 432.53054,328.82746 419.92447,331.32791 419.2369,331.06406 C 418.54932,330.80022 412.01822,320.23606 404.72334,307.58815 C 397.42846,294.94025 390.89764,283.823 390.21041,282.88316 C 389.07122,281.32522 387.24426,282.02792 369.51615,290.84272 L 350.07141,300.51108 L 333.09241,290.92964 C 323.75395,285.65984 315.69163,281.48879 315.17612,281.66062 C 314.66063,281.83245 307.67619,292.3803 299.65513,305.10028 C 291.63408,317.82026 284.78445,328.50727 284.43374,328.8492 C 284.083,329.19113 272.158,326.34169 257.93374,322.51712 C 243.70946,318.69254 231.21094,315.40559 230.15927,315.21277 C 228.50871,314.91015 227.2643,317.59834 221.06319,334.86219 L 213.87924,354.86219 L 195.10839,360.56247 C 184.78441,363.69762 176.17237,366.4279 175.97051,366.62976 C 175.76865,366.83162 178.33996,379.01564 181.68452,393.70536 C 185.02908,408.39508 187.53581,421.01258 187.25504,421.74426 C 186.97427,422.47594 175.68059,429.48145 162.15798,437.31206 C 148.63537,445.14267 137.57141,451.70114 137.57141,451.88643 C 137.57141,452.07172 141.8626,460.94338 147.10738,471.60122 L 156.64334,490.97912 L 146.96505,508.24262 C 138.82308,522.76572 137.50778,525.70785 138.67909,526.77701 C 139.44487,527.47601 150.30892,534.47634 162.82141,542.33331 C 175.33392,550.19027 185.56812,556.89848 185.56409,557.24044 C 185.56006,557.5824 182.25207,570.16487 178.21299,585.20147 C 170.97607,612.14293 170.89978,612.55415 172.97031,613.46119 C 174.12592,613.96743 183.17141,617.25114 193.07141,620.75831 L 211.07141,627.13499 L 216.72111,645.81496 C 219.82845,656.08894 222.54141,664.66553 222.74992,664.87404 C 222.95844,665.08255 235.17256,662.53682 249.89243,659.21687 C 264.61228,655.89692 277.21645,653.39574 277.90169,653.65869 C 278.58692,653.92163 285.57242,665.21249 293.42501,678.74948 C 301.27759,692.28647 307.87785,703.36219 308.09224,703.36219 C 308.30661,703.36219 317.16464,699.0608 327.77671,693.80355 z M 310.24382,685.61219 C 307.8866,681.64502 301.67202,664.26357 302.15802,662.99712 C 303.03831,660.7031 315.33114,651.09566 316.47864,651.80485 C 318.2984,652.92953 327.07293,669.88776 327.23356,672.59051 C 327.37269,674.93136 326.2766,676.103 319.51567,680.84051 C 311.20223,686.66589 310.94773,686.79687 310.24382,685.61219 z M 318.39515,676.79496 C 321.3085,674.83299 323.55249,672.69549 323.38179,672.04496 C 323.21108,671.39444 321.30312,667.62543 319.14187,663.66939 L 315.21234,656.47659 L 310.49021,660.43018 L 305.76809,664.38377 L 308.91975,672.36682 C 310.65317,676.7575 312.30242,680.35265 312.58476,680.35603 C 312.86711,680.35942 315.48177,678.75694 318.39515,676.79496 z M 369.57141,677.0891 C 359.74642,663.84177 360.07397,664.42753 361.63902,662.9041 C 363.13044,661.45233 385.12271,657.96685 386.6879,658.93418 C 387.17384,659.23451 387.57141,660.29191 387.57141,661.28397 C 387.57141,663.79437 377.7537,681.1952 375.72876,682.27379 C 374.41229,682.97501 373.1459,681.90868 369.57141,677.0891 z M 380.6126,667.28145 L 382.75302,663.08587 L 375.41223,663.79741 C 371.37477,664.18876 367.68751,664.88233 367.2183,665.33869 C 366.74909,665.79504 368.2577,668.73024 370.57078,671.86134 L 374.7764,677.55426 L 376.62429,674.51564 C 377.64064,672.8444 379.43537,669.58902 380.6126,667.28145 z M 324.91608,644.10741 C 313.97783,632.41729 304.32267,621.84515 303.46018,620.61377 C 301.94045,618.44405 300.70577,618.29566 263.48172,615.80896 C 242.35605,614.39769 224.70469,612.8806 224.25646,612.43766 C 223.46712,611.65759 225.19754,553.89331 226.13102,549.86219 C 226.48002,548.35509 220.3087,540.71519 201.08997,518.86219 C 187.06266,502.91219 175.58254,489.57386 175.57859,489.22145 C 175.57077,488.52329 215.3444,451.22161 219.85516,447.69668 L 222.62632,445.53116 L 225.16524,407.19668 C 226.56164,386.11271 228.03419,368.52478 228.43758,368.1124 C 229.14281,367.39143 282.39258,368.86687 289.57141,369.80629 C 292.92747,370.24546 294.26418,369.21761 322.07141,344.81589 C 338.02142,330.81926 351.35031,319.36629 351.6912,319.36483 C 352.32116,319.36215 387.78972,357.17658 392.8223,363.21632 L 395.57318,366.51774 L 433.8223,369.02847 C 454.85932,370.40937 472.45566,371.90612 472.92528,372.35457 C 473.75472,373.1466 472.04015,430.84501 471.06781,434.86219 C 470.70019,436.38102 476.71718,443.82679 496.07757,465.81074 C 510.09919,481.73244 521.57141,495.07607 521.57141,495.46325 C 521.57141,496.31953 478.53088,536.72587 476.27258,537.98967 C 474.9204,538.74639 474.27214,544.87707 472.11238,577.33285 C 470.70527,598.47858 469.16867,616.16493 468.69774,616.63586 C 467.82888,617.50473 409.56143,615.75076 406.30952,614.75783 C 405.04889,614.37292 397.79417,620.1214 380.80952,634.96346 C 367.75356,646.37244 354.73586,657.87946 351.88127,660.53462 C 349.02669,663.18978 346.26649,665.36219 345.74748,665.36219 C 345.22847,665.36219 335.85435,655.79754 324.91608,644.10741 z M 374.57141,635.26768 C 398.99476,613.8147 403.42902,610.3096 405.57141,610.76339 C 409.04676,611.49951 464.63737,613.62957 465.21806,613.04887 C 465.4777,612.78924 466.80486,595.81257 468.16734,575.32293 L 470.64458,538.06905 L 477.84411,531.46562 C 492.77854,517.76775 516.08036,495.91621 516.30389,495.39953 C 516.43177,495.10399 505.26895,482.03719 491.49766,466.36219 C 468.46032,440.14023 466.50165,437.6224 466.99328,434.86219 C 467.66912,431.06768 469.74328,376.20073 469.23029,375.68772 C 469.02094,375.47839 452.07567,374.18297 431.57411,372.80902 L 394.29853,370.31093 L 387.68655,363.08656 C 379.31238,353.93677 367.17482,340.94747 358.28061,331.61708 L 351.37421,324.37197 L 327.72282,345.01382 C 314.71455,356.36683 301.97273,367.67199 299.40766,370.1364 C 295.26672,374.11481 294.36988,374.54924 291.40766,374.01156 C 287.61026,373.32229 232.4574,371.14288 231.93868,371.66159 C 231.7523,371.84798 230.48355,388.7603 229.11925,409.24452 L 226.63871,446.48857 L 218.8665,453.67538 C 214.59178,457.62812 204.20629,467.33653 195.78763,475.2496 L 180.48097,489.63701 L 182.41797,491.7496 C 183.48332,492.91153 194.76097,505.7365 207.47941,520.24954 L 230.60387,546.63689 L 230.06088,551.24954 C 229.31908,557.55111 227.54407,608.66818 228.0495,609.1736 C 228.27259,609.3967 245.2438,610.67619 265.76327,612.01691 L 303.07141,614.45459 L 305.57141,617.38788 C 310.63786,623.33242 345.08798,660.28443 345.57141,660.29282 C 345.84641,660.29759 358.89642,649.03628 374.57141,635.26768 z M 341.63828,628.66251 C 336.78674,621.62176 333.6209,616.05551 333.78925,614.86219 C 334.05482,612.97987 334.68925,612.88382 344.57141,613.22981 C 350.34641,613.43201 357.98753,613.88201 361.55168,614.22981 C 367.68622,614.82845 368.04283,615.00514 368.23634,617.54172 C 368.39507,619.62242 366.52385,622.41595 359.86332,630.04172 C 355.14574,635.44298 350.94469,639.99734 350.52768,640.16251 C 350.11067,640.32769 346.11044,635.15269 341.63828,628.66251 z M 357.83226,626.36219 C 361.44456,622.23719 364.28278,618.74385 364.13944,618.59922 C 363.68771,618.14343 339.16038,616.43989 338.76354,616.83674 C 338.23059,617.36968 349.94086,634.3208 350.66794,634.06887 C 350.99603,633.9552 354.21996,630.48719 357.83226,626.36219 z M 342.42437,595.69095 C 340.17452,590.83513 336.1475,582.13719 333.47541,576.36219 C 328.91758,566.51164 328.44557,565.8761 325.84424,566.08708 C 324.31918,566.21077 311.25383,567.69669 296.8101,569.38911 C 282.36639,571.08154 270.06152,572.16509 269.46595,571.797 C 268.00305,570.89289 268.3332,569.6783 275.90166,548.12071 L 282.48143,529.37924 L 273.27642,522.08955 C 268.21366,518.08023 257.86115,509.92323 250.27084,503.9629 C 241.38587,496.98594 236.57843,492.56429 236.77393,491.54912 C 236.95809,490.5929 244.52394,486.50444 255.99726,481.16117 C 266.40306,476.31505 275.03067,472.23626 275.16974,472.09721 C 275.30879,471.95815 273.89941,458.83822 272.03777,442.9418 C 270.17614,427.04538 268.91237,413.61952 269.22941,413.10654 C 270.02816,411.81416 271.56577,412.24474 292.79308,419.70511 L 311.51476,426.28486 L 329.64427,403.26969 C 341.61175,388.07717 348.3125,380.35826 349.35873,380.55975 C 350.32811,380.74643 354.31813,388.16261 359.63231,399.65501 C 364.41106,409.98953 368.48979,418.61195 368.69618,418.81594 C 368.90255,419.01994 382.11326,417.66564 398.05327,415.80638 C 416.59504,413.64366 427.38141,412.77218 427.99636,413.38714 C 429.06231,414.45309 428.71536,415.6292 420.26653,439.58848 L 414.72094,455.31477 L 437.69961,473.44177 C 452.92408,485.45177 460.57484,492.10588 460.37175,493.16042 C 460.18393,494.13574 452.73896,498.16402 441.14557,503.56321 C 430.73977,508.40933 422.13255,512.48411 422.01844,512.61827 C 421.90431,512.75242 423.33978,525.88197 425.20834,541.79504 C 427.4962,561.27901 428.27579,571.05781 427.59548,571.73813 C 426.4698,572.8638 425.58239,572.60418 401.36175,564.06312 L 385.6521,558.52334 L 367.79064,581.19276 C 357.96684,593.66095 349.16097,604.01013 348.22207,604.19095 C 346.93713,604.43841 345.5034,602.33642 342.42437,595.69095 z M 366.57141,576.36219 C 376.53608,563.71219 385.08598,553.36219 385.57118,553.36219 C 386.0564,553.36219 386.69497,553.7531 386.99026,554.23087 C 387.60281,555.22201 423.45108,567.83519 423.98351,567.24691 C 424.17501,567.03531 422.83022,554.07505 420.99505,538.44633 C 419.15989,522.8176 417.89039,509.6551 418.17393,509.19633 C 418.45746,508.73755 419.2956,508.36219 420.03643,508.36219 C 421.97383,508.36219 454.57141,493.20863 454.57141,492.308 C 454.57141,491.89372 444.44641,483.60798 432.07141,473.89524 C 419.69641,464.18251 409.57141,455.90418 409.57141,455.49896 C 409.57141,455.09374 409.99492,454.33469 410.51254,453.81219 C 411.61403,452.70033 423.73324,418.25504 423.3386,417.35792 C 423.19164,417.02386 410.47141,418.24238 395.07141,420.06574 C 379.67141,421.8891 366.50891,423.16584 365.82141,422.90295 C 365.13391,422.64006 364.57141,421.74458 364.57141,420.913 C 364.57141,420.08142 361.03031,411.72149 356.7023,402.33538 L 348.83317,385.26971 L 331.08725,407.82803 C 321.327,420.23511 312.92339,430.64466 312.41258,430.96036 C 311.90175,431.27607 310.94101,431.10351 310.27761,430.5769 C 308.80083,429.40464 273.58256,416.98487 273.18605,417.49651 C 273.0302,417.69764 274.39615,430.46219 276.22152,445.86219 C 278.04687,461.26219 279.33646,474.42469 279.08726,475.11219 C 278.83807,475.79969 277.98736,476.36219 277.1968,476.36219 C 275.30663,476.36219 242.57141,491.46372 242.57141,492.3357 C 242.57141,492.7056 252.69641,500.98789 265.07141,510.74077 C 277.44641,520.49366 287.57141,528.8083 287.57141,529.21774 C 287.57141,529.62719 287.17492,530.38969 286.69032,530.91219 C 285.61206,532.07478 273.19361,567.33693 273.70573,567.78189 C 273.90687,567.95664 286.85842,566.60318 302.48699,564.77422 C 318.11556,562.94525 331.27806,561.68089 331.73699,561.96452 C 332.19592,562.24816 332.57141,563.114 332.57141,563.88861 C 332.57141,565.07636 347.70093,599.25349 348.26264,599.33458 C 348.36779,599.34977 356.60675,589.01219 366.57141,576.36219 z M 326.57141,547.61064 C 323.97405,546.3131 322.68861,544.75479 321.58707,541.56816 C 320.20784,537.57815 320.24323,537.01173 322.08707,533.56816 C 323.56293,530.81184 325.17176,529.48183 328.36544,528.37785 C 332.35545,526.99861 332.92188,527.03401 336.36544,528.87785 C 341.62018,531.69147 343.72828,537.713 341.26615,542.87613 C 340.15214,545.21225 338.33923,546.97908 336.09336,547.91747 C 331.68231,549.76052 330.81934,549.73272 326.57141,547.61064 z M 336.49884,542.72733 C 339.15601,539.34927 339.1249,536.58024 336.3971,533.67664 C 333.42936,530.51762 329.27353,530.65414 326.64399,533.99705 C 323.98682,537.37511 324.01793,540.14414 326.74572,543.04774 C 329.71347,546.20676 333.86931,546.07024 336.49884,542.72733 z M 364.57141,546.61064 C 361.97405,545.3131 360.68861,543.75479 359.58707,540.56816 C 358.20784,536.57815 358.24323,536.01173 360.08707,532.56816 C 361.56292,529.81184 363.17176,528.48183 366.36544,527.37785 C 370.35545,525.99861 370.92188,526.03401 374.36544,527.87785 C 379.62018,530.69147 381.72828,536.713 379.26615,541.87613 C 378.15214,544.21225 376.33923,545.97908 374.09335,546.91747 C 369.68231,548.76052 368.81934,548.73272 364.57141,546.61064 z M 374.49883,541.72733 C 377.15601,538.34927 377.1249,535.58024 374.3971,532.67664 C 371.42936,529.51762 367.27352,529.65414 364.64399,532.99705 C 361.98681,536.37511 362.01793,539.14414 364.74572,542.04774 C 367.71348,545.20676 371.86931,545.07024 374.49883,541.72733 z M 298.57141,522.61064 C 295.97405,521.3131 294.68861,519.75479 293.58707,516.56816 C 292.20784,512.57815 292.24323,512.01173 294.08707,508.56816 C 295.56293,505.81184 297.17176,504.48183 300.36544,503.37785 C 304.35545,501.99861 304.92188,502.03401 308.36544,503.87785 C 313.62018,506.69147 315.72828,512.713 313.26615,517.87613 C 312.15214,520.21225 310.33923,521.97908 308.09336,522.91747 C 303.68231,524.76052 302.81934,524.73272 298.57141,522.61064 z M 308.49884,517.72733 C 311.15601,514.34927 311.1249,511.58024 308.3971,508.67664 C 305.42936,505.51762 301.27353,505.65414 298.64399,508.99705 C 295.98682,512.37511 296.01793,515.14414 298.74572,518.04774 C 301.71347,521.20676 305.86931,521.07024 308.49884,517.72733 z M 389.57141,518.61064 C 386.97405,517.3131 385.68861,515.75479 384.58707,512.56816 C 383.20784,508.57815 383.24323,508.01173 385.08707,504.56816 C 386.56292,501.81184 388.17176,500.48183 391.36544,499.37785 C 395.35545,497.99861 395.92188,498.03401 399.36544,499.87785 C 404.62018,502.69147 406.72828,508.713 404.26615,513.87613 C 403.15214,516.21225 401.33923,517.97908 399.09335,518.91747 C 394.68231,520.76052 393.81934,520.73272 389.57141,518.61064 z M 399.49883,513.72733 C 402.15601,510.34927 402.1249,507.58024 399.3971,504.67664 C 396.42936,501.51762 392.27352,501.65414 389.64399,504.99705 C 386.98681,508.37511 387.01793,511.14414 389.74572,514.04774 C 392.71348,517.20676 396.86931,517.07024 399.49883,513.72733 z M 339.87429,515.71753 C 334.78217,513.91374 328.66563,508.18194 326.11017,502.81922 C 323.49585,497.33299 323.44591,487.12285 326.00816,481.95879 C 330.51462,472.87622 338.47833,467.9219 348.57141,467.9219 C 356.29774,467.9219 361.29029,470.03979 366.6969,475.61093 C 384.64124,494.10136 364.37936,524.39804 339.87429,515.71753 z M 356.35353,511.80914 C 364.19163,508.53498 369.5275,500.65837 369.5275,492.36219 C 369.5275,480.94215 359.82086,471.32534 348.35354,471.38415 C 333.976,471.45789 323.61483,486.95468 329.12446,500.14431 C 333.58527,510.82316 345.99112,516.13777 356.35353,511.80914 z M 297.57141,484.61064 C 294.97405,483.3131 293.68861,481.75479 292.58707,478.56816 C 291.20784,474.57815 291.24323,474.01173 293.08707,470.56816 C 294.56293,467.81184 296.17176,466.48183 299.36544,465.37785 C 303.35545,463.99861 303.92188,464.03401 307.36544,465.87785 C 312.62018,468.69147 314.72828,474.713 312.26615,479.87613 C 311.15214,482.21225 309.33923,483.97908 307.09336,484.91747 C 302.68231,486.76052 301.81934,486.73272 297.57141,484.61064 z M 307.49884,479.72733 C 310.15601,476.34927 310.1249,473.58024 307.3971,470.67664 C 304.42936,467.51762 300.27353,467.65414 297.64399,470.99705 C 294.98682,474.37511 295.01793,477.14414 297.74572,480.04774 C 300.71347,483.20676 304.86931,483.07024 307.49884,479.72733 z M 388.57141,480.61064 C 385.97405,479.3131 384.68861,477.75479 383.58707,474.56816 C 382.20784,470.57815 382.24323,470.01173 384.08707,466.56816 C 385.56292,463.81184 387.17176,462.48183 390.36544,461.37785 C 394.35545,459.99861 394.92188,460.03401 398.36544,461.87785 C 403.62018,464.69147 405.72828,470.713 403.26615,475.87613 C 402.15214,478.21225 400.33923,479.97908 398.09335,480.91747 C 393.68231,482.76052 392.81934,482.73272 388.57141,480.61064 z M 398.49883,475.72733 C 401.15601,472.34927 401.1249,469.58024 398.3971,466.67664 C 395.42936,463.51762 391.27352,463.65414 388.64399,466.99705 C 385.98681,470.37511 386.01793,473.14414 388.74572,476.04774 C 391.71348,479.20676 395.86931,479.07024 398.49883,475.72733 z M 322.57141,456.61064 C 319.97405,455.3131 318.68861,453.75479 317.58707,450.56816 C 316.20784,446.57815 316.24323,446.01173 318.08707,442.56816 C 319.56293,439.81184 321.17176,438.48183 324.36544,437.37785 C 328.35545,435.99861 328.92188,436.03401 332.36544,437.87785 C 337.62018,440.69147 339.72828,446.713 337.26615,451.87613 C 336.15214,454.21225 334.33923,455.97908 332.09336,456.91747 C 327.68231,458.76052 326.81934,458.73272 322.57141,456.61064 z M 332.49884,451.72733 C 335.15601,448.34927 335.1249,445.58024 332.3971,442.67664 C 329.42936,439.51762 325.27353,439.65414 322.64399,442.99705 C 319.98682,446.37511 320.01793,449.14414 322.74572,452.04774 C 325.71347,455.20676 329.86931,455.07024 332.49884,451.72733 z M 360.57141,455.61064 C 357.97405,454.3131 356.68861,452.75479 355.58707,449.56816 C 354.20784,445.57815 354.24323,445.01173 356.08707,441.56816 C 357.56292,438.81184 359.17176,437.48183 362.36544,436.37785 C 366.35545,434.99861 366.92188,435.03401 370.36544,436.87785 C 375.62018,439.69147 377.72828,445.713 375.26615,450.87613 C 374.15214,453.21225 372.33923,454.97908 370.09335,455.91747 C 365.68231,457.76052 364.81934,457.73272 360.57141,455.61064 z M 370.49883,450.72733 C 373.15601,447.34927 373.1249,444.58024 370.3971,441.67664 C 367.42936,438.51762 363.27352,438.65414 360.64399,441.99705 C 357.98681,445.37511 358.01793,448.14414 360.74572,451.04774 C 363.71348,454.20676 367.86931,454.07024 370.49883,450.72733 z M 308.66781,601.09745 C 302.58343,597.97056 300.12353,590.02492 303.54549,584.55201 C 309.2429,575.43992 323.30375,577.89941 325.0636,588.31591 C 326.66695,597.80607 316.97103,605.36464 308.66781,601.09745 z M 318.37075,596.33451 C 321.21725,593.68258 322.13397,589.78186 320.58908,586.89521 C 317.05683,580.29511 307.79676,581.63187 305.94517,589.00916 C 304.24674,595.77626 313.26394,601.09224 318.37075,596.33451 z M 245.11913,598.4394 C 244.31871,597.1443 249.42569,570.26035 250.78521,568.61219 C 251.35232,567.92469 252.1791,567.36219 252.62252,567.36219 C 253.62162,567.36219 275.57141,592.33209 275.57141,593.46866 C 275.57141,595.20957 271.65462,596.20949 260.56734,597.29904 C 254.24458,597.92038 248.32179,598.65708 247.40557,598.93615 C 246.48936,599.21521 245.46046,598.99168 245.11913,598.4394 z M 268.37565,592.40854 C 269.2875,591.92854 267.18526,588.89862 261.3881,582.33744 L 253.09634,572.9529 L 251.39371,581.90754 C 248.7969,595.56494 248.15964,594.47702 258.32141,593.73447 C 263.13391,593.38281 267.65831,592.78614 268.37565,592.40854 z M 388.66781,597.09745 C 382.58343,593.97056 380.12352,586.02492 383.5455,580.55201 C 389.2429,571.43992 403.30374,573.89941 405.06359,584.31591 C 406.66694,593.80607 396.97103,601.36464 388.66781,597.09745 z M 398.37074,592.33451 C 401.21726,589.68258 402.13398,585.78186 400.58909,582.89521 C 397.05682,576.29511 387.79675,577.63187 385.94518,585.00916 C 384.24674,591.77626 393.26394,597.09224 398.37074,592.33451 z M 439.11089,593.72809 C 426.93308,591.40684 423.57141,590.23497 423.57141,588.31109 C 423.57141,587.31199 448.54132,565.36219 449.67789,565.36219 C 451.85851,565.36219 452.28668,567.70617 454.87687,593.82388 C 455.14683,596.54592 453.85267,596.53806 439.11089,593.72809 z M 449.9437,582.61219 C 449.59203,577.79969 449.02435,573.32706 448.68214,572.67301 C 448.28633,571.91645 444.63248,574.46304 438.63855,579.67301 L 429.21712,587.86219 L 437.64428,589.51702 C 451.66404,592.27007 450.68941,592.81723 449.9437,582.61219 z M 249.66782,548.09745 C 243.58343,544.97056 241.12353,537.02492 244.54549,531.55201 C 250.2429,522.43992 264.30375,524.89941 266.0636,535.31591 C 267.66695,544.80607 257.97103,552.36464 249.66782,548.09745 z M 259.37074,543.33451 C 262.21725,540.68258 263.13397,536.78186 261.58908,533.89521 C 258.05683,527.29511 248.79676,528.63187 246.94517,536.00916 C 245.24673,542.77626 254.26394,548.09224 259.37074,543.33451 z M 441.66781,538.09745 C 435.58343,534.97056 433.12352,527.02492 436.5455,521.55201 C 442.2429,512.43992 456.30374,514.89941 458.06359,525.31591 C 459.66694,534.80607 449.97103,542.36464 441.66781,538.09745 z M 451.37074,533.33451 C 454.21726,530.68258 455.13398,526.78186 453.58909,523.89521 C 450.05682,517.29511 440.79675,518.63187 438.94518,526.00916 C 437.24674,532.77626 446.26394,538.09224 451.37074,533.33451 z M 210.91005,503.62405 C 205.49881,498.89147 200.93452,494.68579 200.76719,494.2781 C 200.23661,492.98533 222.95413,478.02192 225.57141,477.94022 L 228.07141,477.86219 L 227.70255,490.36219 C 227.49967,497.23719 227.04542,504.87794 226.69313,507.34163 C 226.12897,511.28692 225.73636,511.84537 223.40064,512.0249 C 221.35256,512.18232 218.50836,510.26939 210.91005,503.62405 z M 223.5809,495.22701 C 224.05656,488.44889 224.31525,482.77269 224.15578,482.61322 C 223.67877,482.13622 206.63293,493.81162 206.86109,494.45906 C 207.21838,495.47298 221.98418,508.28275 222.36114,507.90581 C 222.55636,507.71058 223.10524,502.00513 223.5809,495.22701 z M 469.1009,506.40991 C 468.49693,505.43266 470.38922,474.46602 471.12572,473.27432 C 472.4323,471.16024 476.97572,473.09567 482.77605,478.23719 C 486.26622,481.33094 490.89715,485.32193 493.06702,487.10606 C 497.78371,490.98426 498.26723,490.3004 483.75715,500.27319 C 473.90881,507.04196 470.39963,508.51129 469.1009,506.40991 z M 482.08122,496.71208 C 486.75084,493.60452 490.53874,490.79202 490.49882,490.46208 C 490.4589,490.13214 486.97139,486.85099 482.74882,483.17063 L 475.07141,476.47907 L 474.41542,481.17063 C 473.62108,486.85164 472.7656,502.36219 473.24661,502.36219 C 473.43605,502.36219 477.41163,499.81964 482.08122,496.71208 z M 245.66782,468.09745 C 239.58343,464.97056 237.12353,457.02492 240.54549,451.55201 C 246.2429,442.43992 260.30375,444.89941 262.0636,455.31591 C 263.66694,464.80607 253.97103,472.36464 245.66782,468.09745 z M 255.37074,463.33451 C 258.21725,460.68258 259.13397,456.78186 257.58908,453.89521 C 254.05683,447.29511 244.79676,448.63187 242.94517,456.00916 C 241.24673,462.77626 250.26394,468.09224 255.37074,463.33451 z M 437.66781,458.09745 C 431.58343,454.97056 429.12352,447.02492 432.5455,441.55201 C 438.2429,432.43992 452.30374,434.89941 454.06359,445.31591 C 455.66694,454.80607 445.97103,462.36464 437.66781,458.09745 z M 447.37074,453.33451 C 450.21726,450.68258 451.13398,446.78186 449.58909,443.89521 C 446.05682,437.29511 436.79675,438.63187 434.94518,446.00916 C 433.24674,452.77626 442.26394,458.09224 447.37074,453.33451 z M 245.71235,417.61219 C 245.20116,416.64969 244.31186,410.68061 243.7361,404.34757 C 243.16036,398.01453 242.40709,392.09754 242.06217,391.19872 C 241.71726,390.29989 241.89931,389.27758 242.46671,388.9269 C 243.78104,388.1146 270.65227,393.19915 272.32141,394.57599 C 273.00891,395.14309 273.57141,395.96266 273.57141,396.39727 C 273.57141,397.50283 248.90786,419.36219 247.66046,419.36219 C 247.10019,419.36219 246.22354,418.57469 245.71235,417.61219 z M 259.96703,403.80524 L 267.86263,396.86219 L 258.96703,395.14977 C 245.64623,392.5855 246.32174,392.36118 247.03503,399.11219 C 247.36918,402.27469 247.88504,406.81413 248.1814,409.19983 C 248.79956,414.17587 247.49406,414.77343 259.96703,403.80524 z M 434.03788,406.11219 C 428.64356,399.92469 423.52531,394.03405 422.66399,393.02187 C 421.23426,391.34171 421.25583,391.06613 422.91185,389.85521 C 423.90948,389.12573 428.6285,388.24059 433.39856,387.88825 C 438.16863,387.5359 444.09641,386.85119 446.57141,386.36667 C 449.04641,385.88214 451.4413,385.8503 451.89336,386.2959 C 452.87836,387.2668 447.87348,414.29331 446.37413,416.0999 C 445.79794,416.79416 444.99335,417.36219 444.58613,417.36219 C 444.17893,417.36219 439.43222,412.29969 434.03788,406.11219 z M 447.53384,392.12494 C 447.56753,390.56711 446.77102,390.45463 439.82141,391.03577 C 426.13644,392.18015 426.36697,391.53219 435.80553,402.32367 L 444.06582,411.76798 L 445.78104,402.81509 C 446.72441,397.89099 447.51316,393.08043 447.53384,392.12494 z M 298.66781,409.09745 C 292.58343,405.97056 290.12353,398.02492 293.54549,392.55201 C 299.2429,383.43992 313.30375,385.89941 315.0636,396.31591 C 316.66695,405.80607 306.97103,413.36464 298.66781,409.09745 z M 308.37075,404.33451 C 311.21725,401.68258 312.13397,397.78186 310.58908,394.89521 C 307.05683,388.29511 297.79676,389.63187 295.94517,397.00916 C 294.24674,403.77626 303.26394,409.09224 308.37075,404.33451 z M 378.66781,405.09745 C 372.58343,401.97056 370.12352,394.02492 373.5455,388.55201 C 379.2429,379.43992 393.30374,381.89941 395.06359,392.31591 C 396.66694,401.80607 386.97103,409.36464 378.66781,405.09745 z M 388.37074,400.33451 C 391.21726,397.68258 392.13398,393.78186 390.58909,390.89521 C 387.05682,384.29511 377.79675,385.63187 375.94518,393.00916 C 374.24674,399.77626 383.26394,405.09224 388.37074,400.33451 z M 342.57141,371.2404 C 336.24641,370.75401 330.56516,370.16814 329.94641,369.93847 C 326.90045,368.80786 329.12475,364.2323 337.34318,354.72274 C 342.03016,349.29944 346.21035,344.72504 346.6325,344.55742 C 347.99936,344.01468 363.6678,367.69998 363.36052,369.84445 C 363.00764,372.30727 359.5042,372.54252 342.57141,371.2404 z M 358.57141,367.77649 C 358.57141,366.89075 347.14624,350.40564 346.57141,350.46196 C 346.29641,350.48891 343.01994,354.04782 339.29038,358.37065 L 332.50935,366.23034 L 336.79038,366.8049 C 339.14494,367.1209 343.77142,367.51548 347.07141,367.68174 C 350.37142,367.84799 354.30891,368.06911 355.82141,368.17311 C 357.33392,368.2771 358.57141,368.09863 358.57141,367.77649 z M 446.9093,651.35264 C 440.45736,648.26618 436.52144,645.78011 436.12892,644.54337 C 435.78889,643.47201 436.01638,640.40546 436.63446,637.72882 C 437.25255,635.05217 437.77247,631.84148 437.78984,630.59395 C 437.8072,629.34642 438.20068,628.09132 438.66421,627.80484 C 440.11139,626.91044 459.24548,633.34455 461.042,635.32968 C 462.566,637.01369 462.62146,637.99742 461.56111,644.53864 C 460.90817,648.56659 460.30587,652.75617 460.22269,653.8488 C 459.98501,656.97018 457.79309,656.55921 446.9093,651.35264 z M 457.94958,642.70182 L 458.61652,637.54146 L 450.84055,634.95182 C 446.56377,633.52752 442.76592,632.36219 442.40087,632.36219 C 441.86772,632.36219 439.57141,640.97317 439.57141,642.97244 C 439.57141,643.25393 443.28391,645.22936 447.82141,647.36228 C 457.1367,651.74108 456.75886,651.91494 457.94958,642.70182 z M 401.57141,652.61064 C 398.97405,651.3131 397.68861,649.75479 396.58707,646.56816 C 395.20784,642.57815 395.24323,642.01173 397.08707,638.56816 C 398.56292,635.81184 400.17176,634.48183 403.36544,633.37785 C 407.35545,631.99861 407.92188,632.03401 411.36544,633.87785 C 416.62018,636.69147 418.72828,642.713 416.26615,647.87613 C 415.15214,650.21225 413.33923,651.97908 411.09335,652.91747 C 406.68231,654.76052 405.81934,654.73272 401.57141,652.61064 z M 411.49883,647.72733 C 414.15601,644.34927 414.1249,641.58024 411.3971,638.67664 C 408.42936,635.51762 404.27352,635.65414 401.64399,638.99705 C 398.98681,642.37511 399.01793,645.14414 401.74572,648.04774 C 404.71348,651.20676 408.86931,651.07024 411.49883,647.72733 z M 277.57141,649.61064 C 274.97405,648.3131 273.68861,646.75479 272.58707,643.56816 C 271.20784,639.57815 271.24323,639.01173 273.08707,635.56816 C 274.56293,632.81184 276.17176,631.48183 279.36544,630.37785 C 283.35545,628.99861 283.92188,629.03401 287.36544,630.87785 C 292.62018,633.69147 294.72828,639.713 292.26615,644.87613 C 291.15214,647.21225 289.33923,648.97908 287.09336,649.91747 C 282.68231,651.76052 281.81934,651.73272 277.57141,649.61064 z M 287.49884,644.72733 C 290.15601,641.34927 290.1249,638.58024 287.3971,635.67664 C 284.42936,632.51762 280.27353,632.65414 277.64399,635.99705 C 274.98682,639.37511 275.01793,642.14414 277.74572,645.04774 C 280.71347,648.20676 284.86931,648.07024 287.49884,644.72733 z M 231.96253,643.61219 C 232.26502,642.09969 233.01091,637.0499 233.62001,632.39043 C 234.86494,622.86724 235.04991,622.36219 237.29254,622.36219 C 239.10162,622.36219 257.57141,635.92965 257.57141,637.25855 C 257.57141,638.93885 254.94186,640.18939 244.96058,643.25589 C 232.21276,647.17233 231.24516,647.19885 231.96253,643.61219 z M 244.7136,639.31984 C 248.48539,638.19656 251.57141,637.11574 251.57141,636.91803 C 251.57141,636.72032 248.77977,634.48406 245.36777,631.94856 C 240.96328,628.67552 238.96855,627.70451 238.48971,628.60038 C 237.47044,630.50736 236.32382,641.36219 237.14165,641.36219 C 237.53442,641.36219 240.94181,640.44313 244.7136,639.31984 z M 490.57141,607.76558 C 479.0954,606.09647 478.57141,605.91427 478.57141,603.59281 C 478.57141,601.6741 492.09346,583.36219 493.5103,583.36219 C 493.95923,583.36219 494.7838,583.92469 495.34267,584.61219 C 496.54652,586.0931 502.57141,605.35513 502.57141,607.72303 C 502.57141,609.59435 503.13151,609.59236 490.57141,607.76558 z M 497.57141,603.72 C 497.57141,602.5844 493.49898,589.36219 493.14921,589.36219 C 492.59482,589.36219 484.55633,600.23792 483.95771,601.7979 C 483.54047,602.88519 484.46869,603.33404 487.73806,603.62591 C 495.81286,604.3468 497.57141,604.36362 497.57141,603.72 z M 195.07141,605.20477 C 192.32141,604.69757 189.02321,604.24425 187.74206,604.19739 C 186.46092,604.15053 185.20683,603.57568 184.95521,602.91995 C 184.1558,600.83673 194.18552,580.61944 196.36093,579.929 C 197.44841,579.58384 200.52814,579.80715 203.20478,580.42524 C 205.88144,581.04333 209.09212,581.56325 210.33966,581.58061 C 211.58719,581.59798 212.84642,581.99813 213.13794,582.46984 C 214.02837,583.91056 207.70766,602.92892 205.74945,604.70107 C 203.7395,606.52006 202.51579,606.57778 195.07141,605.20477 z M 206.05553,594.22314 C 207.46964,589.74666 208.41,585.86745 208.14523,585.60267 C 207.17494,584.63237 198.16055,583.37319 197.43184,584.10616 C 197.01843,584.52198 195.09974,588.33287 193.16808,592.57481 L 189.65598,600.28743 L 193.3637,600.8914 C 195.40294,601.22358 197.74641,601.6382 198.57141,601.81278 C 203.13594,602.77866 203.45508,602.45501 206.05553,594.22314 z M 491.57141,567.61064 C 488.97405,566.3131 487.68861,564.75479 486.58707,561.56816 C 485.20784,557.57815 485.24323,557.01173 487.08707,553.56816 C 488.56292,550.81184 490.17176,549.48183 493.36544,548.37785 C 497.35545,546.99861 497.92188,547.03401 501.36544,548.87785 C 506.62018,551.69147 508.72828,557.713 506.26615,562.87613 C 505.15214,565.21225 503.33923,566.97908 501.09335,567.91747 C 496.68231,569.76052 495.81934,569.73272 491.57141,567.61064 z M 501.49883,562.72733 C 504.15601,559.34927 504.1249,556.58024 501.3971,553.67664 C 498.42936,550.51762 494.27352,550.65414 491.64399,553.99705 C 488.98681,557.37511 489.01793,560.14414 491.74572,563.04774 C 494.71348,566.20676 498.86931,566.07024 501.49883,562.72733 z M 192.57141,559.61064 C 189.97404,558.3131 188.68861,556.75479 187.58708,553.56816 C 186.20784,549.57815 186.24324,549.01173 188.08708,545.56816 C 189.56293,542.81184 191.17176,541.48183 194.36545,540.37785 C 198.35546,538.99861 198.92187,539.03401 202.36544,540.87785 C 207.62018,543.69147 209.72828,549.713 207.26615,554.87613 C 206.15214,557.21225 204.33923,558.97908 202.09335,559.91747 C 197.68231,561.76052 196.81935,561.73272 192.57141,559.61064 z M 202.49884,554.72733 C 205.15601,551.34927 205.1249,548.58024 202.3971,545.67664 C 199.42936,542.51762 195.27353,542.65414 192.64399,545.99705 C 189.98681,549.37511 190.01794,552.14414 192.74573,555.04774 C 195.71348,558.20676 199.86931,558.07024 202.49884,554.72733 z M 518.84835,538.70889 C 516.61603,537.80467 507.27349,525.25898 508.18484,524.38932 C 510.81093,521.88336 526.7999,513.61219 529.01808,513.61219 C 531.13554,513.61219 532.62809,515.08695 537.14087,521.63813 C 540.18163,526.0524 542.29813,530.03547 541.84423,530.48938 C 540.94648,531.38713 521.61072,539.41216 520.65604,539.28324 C 520.3345,539.23982 519.52104,538.98136 518.84835,538.70889 z M 528.29538,532.27529 C 532.57221,530.57749 536.25214,529.00927 536.473,528.79036 C 536.97878,528.28908 529.77076,517.36219 528.93431,517.36219 C 527.9329,517.36219 513.57141,525.4545 513.57141,526.01876 C 513.57141,526.63537 519.77647,535.36219 520.21491,535.36219 C 520.38236,535.36219 524.01856,533.97308 528.29538,532.27529 z M 168.9296,526.46924 C 159.87454,521.26142 157.36863,519.42538 157.78811,518.30605 C 158.13805,517.37228 175.75162,504.36219 176.66586,504.36219 C 178.46473,504.36219 179.56423,507.87036 181.00672,518.21256 C 181.87495,524.43752 182.33064,529.94276 182.01935,530.44643 C 180.89225,532.27012 176.91427,531.06145 168.9296,526.46924 z M 178.27666,525.03645 C 177.99686,524.3073 177.44629,520.7073 177.05317,517.03645 C 176.66006,513.36561 175.92154,510.36219 175.41201,510.36219 C 174.40463,510.36219 163.34234,518.48404 163.79491,518.89139 C 164.75936,519.75948 177.23039,526.34142 177.9284,526.35074 C 178.39975,526.35704 178.55646,525.76561 178.27666,525.03645 z M 518.82213,479.11219 C 517.61851,477.59885 514.3416,455.54305 515.13069,454.26629 C 516.25802,452.44222 519.48252,453.47545 528.17791,458.44704 C 538.27971,464.22273 540.4247,465.95426 539.02855,467.20617 C 536.16366,469.7751 521.38543,480.36219 520.66442,480.36219 C 520.19795,480.36219 519.36892,479.79969 518.82213,479.11219 z M 528.34854,470.24071 L 533.8074,466.11922 L 526.93942,462.26141 C 523.16201,460.13962 519.83842,458.39429 519.55366,458.3829 C 519.2689,458.37151 519.4623,461.96219 519.98347,466.36219 C 520.50464,470.76219 521.37174,474.36219 521.91036,474.36219 C 522.44898,474.36219 525.34617,472.50752 528.34854,470.24071 z M 160.02799,463.12402 C 156.97291,458.68898 154.83288,454.72303 155.27236,454.3108 C 157.21061,452.49276 176.46361,445.38359 177.92757,445.94537 C 180.19486,446.8154 189.78021,459.21533 189.07169,460.36175 C 187.95268,462.17235 171.04395,470.86382 168.32704,471.02497 C 165.95464,471.16569 164.8298,470.09481 160.02799,463.12402 z M 177.28539,462.92121 L 184.49936,458.98024 L 180.84938,454.42121 C 178.8419,451.91375 177.13335,449.74993 177.05261,449.61272 C 176.90813,449.3672 161.4525,455.41187 160.66983,456.02 C 159.81259,456.68607 167.74386,467.47094 168.87364,467.17546 C 169.53242,467.00316 173.3177,465.08875 177.28539,462.92121 z M 494.57141,443.61064 C 491.97405,442.3131 490.68861,440.75479 489.58707,437.56816 C 488.20784,433.57815 488.24323,433.01173 490.08707,429.56816 C 491.56292,426.81184 493.17176,425.48183 496.36544,424.37785 C 500.35545,422.99861 500.92188,423.03401 504.36544,424.87785 C 509.62018,427.69147 511.72828,433.713 509.26615,438.87613 C 508.15214,441.21225 506.33923,442.97908 504.09335,443.91747 C 499.68231,445.76052 498.81934,445.73272 494.57141,443.61064 z M 504.49883,438.72733 C 507.15601,435.34927 507.1249,432.58024 504.3971,429.67664 C 501.42936,426.51762 497.27352,426.65414 494.64399,429.99705 C 491.98681,433.37511 492.01793,436.14414 494.74572,439.04774 C 497.71348,442.20676 501.86931,442.07024 504.49883,438.72733 z M 195.57141,435.61064 C 192.97404,434.3131 191.68861,432.75479 190.58708,429.56816 C 189.20784,425.57815 189.24324,425.01173 191.08708,421.56816 C 192.56293,418.81184 194.17176,417.48183 197.36545,416.37785 C 201.35546,414.99861 201.92187,415.03401 205.36544,416.87785 C 210.62018,419.69147 212.72828,425.713 210.26615,430.87613 C 209.15214,433.21225 207.33923,434.97908 205.09335,435.91747 C 200.68231,437.76052 199.81935,437.73272 195.57141,435.61064 z M 205.49884,430.72733 C 208.15601,427.34927 208.1249,424.58024 205.3971,421.67664 C 202.42936,418.51762 198.27353,418.65414 195.64399,421.99705 C 192.98681,425.37511 193.01794,428.14414 195.74573,431.04774 C 198.71347,434.20676 202.86931,434.07024 205.49884,430.72733 z M 492.45108,403.98516 C 489.3599,403.31998 486.36362,402.93145 485.79271,403.12176 C 483.4502,403.90259 483.6508,400.91925 486.57334,391.51224 C 490.58686,378.59358 491.30857,377.95258 500.19388,379.4151 C 503.97652,380.03773 508.11963,380.56178 509.40076,380.57967 C 510.68191,380.59756 511.936,381.1487 512.18762,381.80443 C 512.88587,383.62401 503.04753,403.96551 501.10956,404.70918 C 499.10651,405.47782 499.56641,405.51628 492.45108,403.98516 z M 503.5194,393.11219 C 507.84969,383.75385 508.16911,384.376 498.35207,383.0475 L 493.63273,382.40886 L 491.12489,390.575 C 489.74557,395.06638 488.74598,398.87009 488.90358,399.02769 C 489.26752,399.39163 496.63926,401.12828 498.38669,401.26174 C 499.11008,401.31699 501.41982,397.64969 503.5194,393.11219 z M 201.80015,400.11219 C 200.59083,398.62454 194.57141,379.36417 194.57141,376.9823 C 194.57141,375.78818 195.20113,375.45742 196.82141,375.80051 C 198.05892,376.06254 203.09824,376.77476 208.01991,377.38321 C 218.10481,378.63 218.57141,378.79975 218.57141,381.22197 C 218.57141,383.07795 205.0092,401.36219 203.63254,401.36219 C 203.1836,401.36219 202.35904,400.79969 201.80015,400.11219 z M 208.97846,389.16742 C 211.51034,385.76029 213.24202,382.66489 212.82665,382.28875 C 211.77313,381.33473 199.57141,380.10673 199.57141,380.95472 C 199.57141,382.16806 203.64131,395.36219 204.01558,395.36219 C 204.21329,395.36219 206.44658,392.57454 208.97846,389.16742 z M 448.82141,355.31606 C 443.73391,351.46251 439.57141,347.92653 439.57141,347.45834 C 439.57141,345.78598 442.21301,344.53129 452.18226,341.46849 C 461.32012,338.66111 465.57141,337.7783 465.57141,338.68812 C 465.57141,340.62502 462.40413,360.82384 461.99715,361.48234 C 460.77664,363.45718 457.61751,361.9787 448.82141,355.31606 z M 460.06836,349.61219 C 460.45304,346.17469 460.43462,343.36219 460.02741,343.36219 C 458.78029,343.36219 445.57141,347.42295 445.57141,347.80635 C 445.57141,348.84765 458.06846,357.25732 458.66495,356.61742 C 459.05214,356.20204 459.68368,353.04969 460.06836,349.61219 z M 247.07141,354.22074 C 234.73426,350.14982 234.18246,349.5027 235.61674,340.78726 C 236.24354,336.97847 236.771,332.81398 236.78889,331.53284 C 236.80678,330.25169 237.34919,329.00096 237.99427,328.75342 C 239.82925,328.04927 260.21239,337.98422 260.96695,339.95053 C 261.3379,340.91721 261.11448,344.21779 260.47048,347.28516 C 259.82648,350.35253 259.24824,353.75617 259.18549,354.8488 C 259.02349,357.6701 257.24556,357.57792 247.07141,354.22074 z M 256.48856,347.31297 C 257.08412,344.5359 257.57141,342.03344 257.57141,341.75194 C 257.57141,341.47045 253.85891,339.49368 249.32141,337.35911 C 239.95513,332.95295 240.60533,332.61579 239.25725,342.57779 L 238.6191,347.29338 L 246.34526,349.78088 C 250.59465,351.14901 254.37163,352.28949 254.73856,352.31529 C 255.10547,352.34108 255.89298,350.09004 256.48856,347.31297 z M 409.57141,353.61064 C 406.97405,352.3131 405.68861,350.75479 404.58707,347.56816 C 403.20784,343.57815 403.24323,343.01173 405.08707,339.56816 C 406.56292,336.81184 408.17176,335.48183 411.36544,334.37785 C 415.35545,332.99861 415.92188,333.03401 419.36544,334.87785 C 424.62018,337.69147 426.72828,343.713 424.26615,348.87613 C 423.15214,351.21225 421.33923,352.97908 419.09335,353.91747 C 414.68231,355.76052 413.81934,355.73272 409.57141,353.61064 z M 419.49883,348.72733 C 422.15601,345.34927 422.1249,342.58024 419.3971,339.67664 C 416.42936,336.51762 412.27352,336.65414 409.64399,339.99705 C 406.98681,343.37511 407.01793,346.14414 409.74572,349.04774 C 412.71348,352.20676 416.86931,352.07024 419.49883,348.72733 z M 285.57141,350.61064 C 282.97405,349.3131 281.68861,347.75479 280.58707,344.56816 C 279.20784,340.57815 279.24323,340.01173 281.08707,336.56816 C 282.56293,333.81184 284.17176,332.48183 287.36544,331.37785 C 291.35545,329.99861 291.92188,330.03401 295.36544,331.87785 C 300.62018,334.69147 302.72828,340.713 300.26615,345.87613 C 299.15214,348.21225 297.33923,349.97908 295.09336,350.91747 C 290.68231,352.76052 289.81934,352.73272 285.57141,350.61064 z M 295.49884,345.72733 C 298.15601,342.34927 298.1249,339.58024 295.3971,336.67664 C 292.42936,333.51762 288.27353,333.65414 285.64399,336.99705 C 282.98682,340.37511 283.01793,343.14414 285.74572,346.04774 C 288.71347,349.20676 292.86931,349.07024 295.49884,345.72733 z M 378.79911,330.11219 C 367.42387,311.01069 367.42486,311.03281 377.62612,303.8846 C 382.02648,300.80118 386.01268,298.51687 386.48431,298.80835 C 386.95594,299.09984 389.24384,304.07083 391.56852,309.855 C 395.48159,319.5913 395.68411,320.54124 394.29783,322.65697 C 392.87252,324.83227 382.5243,333.36219 381.3106,333.36219 C 380.99376,333.36219 379.8636,331.89969 378.79911,330.11219 z M 391.36139,320.80287 C 391.677,320.59901 385.65003,305.11688 384.99958,304.4606 C 384.49862,303.95515 373.57141,311.16256 373.57141,311.99844 C 373.57141,312.33714 375.47059,316.13048 377.79182,320.42808 L 382.01223,328.2419 L 386.54182,324.61605 C 389.03309,322.62182 391.2019,320.90589 391.36139,320.80287 z M 310.23808,325.69552 C 309.87142,325.32886 309.57141,324.26861 309.57141,323.33941 C 309.57141,321.07848 319.8124,303.36647 321.74498,302.28493 C 322.92218,301.62614 324.61805,303.2939 329.17099,309.58789 C 337.12154,320.5787 337.00784,320.35434 335.42756,321.93463 C 334.6788,322.68338 329.15154,323.98589 323.14473,324.82909 C 310.52038,326.60124 311.10457,326.56202 310.23808,325.69552 z M 330.38518,319.81242 C 331.27388,319.51722 330.18327,317.40629 327.01445,313.28816 L 322.32996,307.20031 L 318.49308,314.03125 C 316.38278,317.78827 314.63711,321.11815 314.6138,321.43099 C 314.57129,322.00143 327.91911,320.63158 330.38518,319.81242 z M 532.22661,700.94275 C 520.09522,696.4936 515.9513,681.19477 524.21684,671.37174 C 530.77906,663.57298 542.81914,662.49253 550.56186,669.00761 C 560.42328,677.30543 558.86371,694.02271 547.68912,699.80132 C 543.42915,702.00424 536.51302,702.51479 532.22661,700.94275 z M 542.561,697.71427 C 549.71754,696.28296 554.58102,687.66018 552.91896,679.3499 C 552.00668,674.78855 546.67146,669.79371 541.89584,669.03006 C 530.38466,667.18935 521.3397,676.97003 524.57303,687.76194 C 526.94582,695.68155 533.79024,699.46842 542.561,697.71427 z M 151.2266,699.94275 C 139.09522,695.4936 134.95129,680.19477 143.21683,670.37174 C 149.77906,662.57298 161.81914,661.49253 169.56186,668.00761 C 179.42327,676.30543 177.86372,693.02271 166.68913,698.80132 C 162.42914,701.00424 155.51302,701.51479 151.2266,699.94275 z M 161.561,696.71427 C 168.71755,695.28296 173.58101,686.66018 171.91896,678.3499 C 171.00669,673.78855 165.67146,668.79371 160.89585,668.03006 C 149.38466,666.18935 140.3397,675.97003 143.57304,686.76194 C 145.94581,694.68155 152.79024,698.46842 161.561,696.71427 z M 473.57141,699.45079 L 466.07141,698.86219 L 465.78499,689.09478 C 465.57181,681.82471 465.82748,679.21303 466.78499,678.88015 C 467.49252,678.63418 473.47141,677.77608 480.07141,676.97327 C 486.67141,676.17045 492.97141,675.36704 494.07141,675.1879 C 495.98211,674.87673 496.07141,675.42029 496.07141,687.36219 L 496.07141,699.86219 L 488.57141,699.95079 C 484.44641,699.99953 477.69641,699.77453 473.57141,699.45079 z M 492.57141,687.84314 C 492.57141,679.53702 492.51517,679.33575 490.32141,679.79055 C 489.08392,680.04711 485.37142,680.52947 482.07141,680.86248 C 478.77142,681.19548 474.60891,681.71923 472.82141,682.02636 L 469.57141,682.58477 L 469.57141,688.91598 L 469.57141,695.24719 L 473.82141,695.62998 C 476.15891,695.84052 481.33392,696.09139 485.32141,696.18748 L 492.57141,696.36219 L 492.57141,687.84314 z M 192.38349,684.61219 C 191.55965,683.64969 186.47116,675.747 181.07575,667.05065 C 172.71332,653.57205 171.47288,651.03951 172.66866,649.88626 C 173.54056,649.04537 178.7791,648.11332 186.51127,647.42336 C 196.86358,646.4996 199.18339,646.54559 200.33523,647.69743 C 201.51403,648.87623 201.338,651.71147 199.14845,666.81236 C 196.10087,687.83103 195.80499,688.60954 192.38349,684.61219 z M 195.50213,664.33016 C 196.58451,656.95872 197.34699,650.80443 197.19652,650.65396 C 196.8416,650.29904 177.47282,652.12745 177.04391,652.55636 C 176.86456,652.73571 180.33765,658.63762 184.76189,665.67171 C 189.18613,672.70581 192.9698,678.29713 193.17006,678.09688 C 193.37032,677.89662 194.41975,671.7016 195.50213,664.33016 z M 110.24386,668.11194 C 108.69975,666.98286 108.56008,664.54381 108.80273,642.94472 C 108.99252,626.05131 109.4084,618.91558 110.21892,618.6458 C 111.678,618.16015 140.84421,656.2089 140.23327,657.801 C 139.87073,658.74577 114.36408,669.36219 112.45675,669.36219 C 112.18006,669.36219 111.18426,668.79958 110.24386,668.11194 z M 130.32141,658.53342 C 132.65892,657.65197 134.57141,656.56815 134.57141,656.12493 C 134.57141,655.6817 129.62141,648.7328 123.57141,640.68292 L 112.57141,626.04677 L 112.57141,645.65966 L 112.57141,665.27256 L 119.32141,662.7043 C 123.03391,661.29176 127.98391,659.41486 130.32141,658.53342 z M 505.81152,668.11219 C 505.2589,667.42469 504.3151,661.24195 503.71423,654.37276 C 502.84468,644.43233 502.88162,641.6234 503.89525,640.60978 C 504.92666,639.57838 508.58203,639.82857 523.12011,641.9256 C 532.99332,643.34975 541.50391,644.93559 542.03252,645.44969 C 543.47734,646.85483 540.59271,649.12004 525.57141,658.37617 C 518.14642,662.95145 511.36098,667.29501 510.49267,668.02853 C 508.51977,669.69516 507.1043,669.72046 505.81152,668.11219 z M 523.87431,654.90283 C 529.8159,651.18033 534.5409,648.0022 534.37431,647.84032 C 534.20771,647.67844 528.89642,646.81762 522.57141,645.92738 C 516.24642,645.03713 510.03491,644.08118 508.76809,643.80304 C 506.50817,643.30685 506.47596,643.41571 507.05934,649.57975 C 508.49477,664.74677 508.46943,664.65749 510.89291,663.08477 C 512.09108,662.30721 517.93271,658.62534 523.87431,654.90283 z M 551.91013,654.80249 C 551.5583,653.8856 552.33688,652.13402 553.79928,650.55249 C 555.16748,649.07283 562.73616,639.31219 570.61852,628.86219 C 578.5009,618.41219 585.42741,609.86219 586.01076,609.86219 C 586.73385,609.86219 586.99062,616.86399 586.81753,631.86219 C 586.5949,651.15619 586.35613,654.01594 584.87641,655.11219 C 583.69891,655.98454 578.55456,656.36219 567.84891,656.36219 C 554.87466,656.36219 552.41634,656.12163 551.91013,654.80249 z M 582.57658,645.61219 C 582.57943,641.89969 582.85871,634.36219 583.19721,628.86219 C 583.93971,616.79779 584.93549,616.1982 568.66564,637.61219 L 557.45893,652.36219 L 570.01517,652.36219 L 582.57141,652.36219 L 582.57658,645.61219 z M 140.94963,638.90541 C 140.62911,638.07016 140.75039,631.19374 141.21914,623.62448 L 142.07141,609.86219 L 152.07141,609.86219 L 162.07141,609.86219 L 163.79208,622.86219 C 164.73844,630.01219 165.63844,636.76219 165.79208,637.86219 C 166.05657,639.7559 165.41938,639.87712 153.8019,640.14313 C 143.574,640.37731 141.43542,640.17136 140.94963,638.90541 z M 161.19295,633.61219 C 160.89739,632.09969 160.37546,627.71219 160.03311,623.86219 C 159.06363,612.95996 159.37121,613.36219 152.00403,613.36219 L 145.57141,613.36219 L 145.56431,618.11219 C 145.5604,620.72469 145.27032,625.89969 144.9197,629.61219 L 144.28221,636.36219 L 153.00627,636.36219 L 161.73033,636.36219 L 161.19295,633.61219 z M 546.36277,616.37378 C 537.22279,613.61859 531.99035,603.94751 534.53227,594.50755 C 536.74798,586.27904 542.60301,582.04232 551.77036,582.03402 C 563.92796,582.02301 571.75569,592.53672 568.52435,604.53697 C 566.05078,613.72308 555.77557,619.21121 546.36277,616.37378 z M 556.25632,612.29558 C 562.54111,609.91433 566.47246,602.74113 565.04777,596.25456 C 562.74894,585.78802 548.12686,582.15965 541.23818,590.34637 C 532.1691,601.12437 543.19799,617.24324 556.25632,612.29558 z M 124.36277,577.37378 C 115.2228,574.61859 109.99036,564.94751 112.53227,555.50755 C 114.74798,547.27904 120.60301,543.04232 129.77037,543.03402 C 141.92797,543.02301 149.75568,553.53672 146.52435,565.53697 C 144.05079,574.72308 133.77558,580.21121 124.36277,577.37378 z M 134.25631,573.29558 C 140.54112,570.91433 144.47247,563.74113 143.04777,557.25456 C 140.74894,546.78802 126.12685,543.15965 119.23818,551.34637 C 110.1691,562.12437 121.19799,578.24324 134.25631,573.29558 z M 570.1344,548.42565 L 563.25101,541.48911 L 570.92961,531.94235 C 575.15284,526.69163 579.0388,521.26307 579.56506,519.87889 C 580.09134,518.4947 580.90822,517.36219 581.38038,517.36219 C 583.12976,517.36219 598.57141,532.59994 598.57141,534.32622 C 598.57141,535.99641 579.42084,555.36219 577.76921,555.36219 C 577.35591,555.36219 573.92026,552.24075 570.1344,548.42565 z M 585.9603,542.6529 C 590.42141,538.41279 594.18711,534.69071 594.32852,534.38161 C 594.46991,534.07251 591.91826,531.47171 588.65817,528.60206 L 582.73075,523.38452 L 575.50887,532.44061 L 568.28701,541.4967 L 572.63742,545.92944 C 575.03014,548.36745 577.18163,550.36219 577.41851,550.36219 C 577.65536,550.36219 581.49918,546.89301 585.9603,542.6529 z M 101.91701,519.8204 C 101.59161,518.97242 103.51823,509.63668 106.19839,499.07431 C 109.76701,485.01061 111.49244,479.79155 112.64428,479.57689 C 113.50935,479.41567 118.82026,482.96159 124.4463,487.45671 C 132.15451,493.61545 134.60103,496.12758 134.37344,497.65008 C 134.08272,499.59489 105.74048,521.36219 103.49896,521.36219 C 102.95429,521.36219 102.24241,520.66838 101.91701,519.8204 z M 114.32141,509.17717 C 117.20892,507.07893 122.07383,503.52775 125.13233,501.28565 L 130.69324,497.2091 L 122.46909,490.78222 C 117.9458,487.24744 114.12634,484.47393 113.9814,484.61888 C 113.6741,484.92618 106.57142,512.96455 106.57142,513.87034 C 106.57142,514.65126 107.87241,513.86342 114.32141,509.17717 z M 572.82141,497.30481 C 566.34051,492.2077 562.57141,488.55479 562.57141,487.37078 C 562.57141,485.35837 590.55687,464.17898 593.48778,463.97327 C 596.1521,463.78627 595.75187,467.14369 590.81942,486.35682 C 587.47267,499.39318 585.62873,504.92742 584.57141,505.10885 C 583.74642,505.25042 578.45892,501.7386 572.82141,497.30481 z M 587.04195,485.47917 C 589.0313,477.57964 590.4985,470.95594 590.3024,470.75985 C 589.82807,470.2855 568.15413,486.16426 567.77921,487.26079 C 567.49971,488.07823 582.57573,500.69121 583.14812,500.11881 C 583.30039,499.96655 585.05261,493.37871 587.04195,485.47917 z M 106.82142,459.76068 C 102.28392,455.59715 98.571417,451.43047 98.571417,450.50138 C 98.571417,449.01681 106.45636,440.75602 116.33992,431.88591 L 119.60842,428.95255 L 126.58992,435.88055 C 130.42974,439.69095 133.56967,443.04562 133.56753,443.33537 C 133.56539,443.62512 130.14097,448.13719 125.95771,453.36219 C 121.77444,458.58719 117.96233,463.87469 117.48634,465.11219 C 117.01036,466.34969 116.27228,467.35511 115.84617,467.34646 C 115.42005,467.33782 111.35892,463.92421 106.82142,459.76068 z M 124.79559,448.57162 L 128.89086,443.26339 L 124.51263,438.80229 C 122.1046,436.34869 119.8121,434.45842 119.41818,434.60169 C 119.02427,434.74497 115.08875,438.38426 110.6726,442.68901 L 102.64322,450.51582 L 108.35732,455.9222 L 114.07141,461.32858 L 117.38586,457.60422 C 119.20881,455.55582 122.54319,451.49115 124.79559,448.57162 z M 562.36277,441.37378 C 553.22279,438.61859 547.99035,428.94751 550.53227,419.50755 C 552.74798,411.27904 558.60301,407.04232 567.77036,407.03402 C 579.92796,407.02301 587.75569,417.53672 584.52435,429.53697 C 582.05078,438.72308 571.77557,444.21121 562.36277,441.37378 z M 572.25632,437.29558 C 578.54111,434.91433 582.47246,427.74113 581.04777,421.25456 C 578.74894,410.78802 564.12686,407.15965 557.23818,415.34637 C 548.1691,426.12437 559.19799,442.24324 572.25632,437.29558 z M 140.36277,402.37378 C 131.2228,399.61859 125.99036,389.94751 128.53227,380.50755 C 130.74798,372.27904 136.60301,368.04232 145.77037,368.03402 C 157.92797,368.02301 165.75568,378.53672 162.52435,390.53697 C 160.05079,399.72308 149.77558,405.21121 140.36277,402.37378 z M 150.25631,398.29558 C 156.54112,395.91433 160.47247,388.74113 159.04777,382.25456 C 156.74894,371.78802 142.12685,368.15965 135.23818,376.34637 C 126.16909,387.12437 137.19799,403.24324 150.25631,398.29558 z M 110.05507,374.33573 C 109.67027,373.71312 109.68449,363.55052 110.08666,351.75218 C 110.74257,332.51017 111.00442,330.20082 112.62891,329.33142 C 113.62497,328.79834 121.23364,328.36219 129.53706,328.36219 C 142.29106,328.36219 144.72708,328.60426 145.2327,329.92189 C 145.58454,330.83878 144.80595,332.59036 143.34355,334.17189 C 141.97534,335.65155 134.41827,345.41219 126.55007,355.86219 C 118.68186,366.31219 111.90909,374.99844 111.49947,375.16498 C 111.08985,375.33151 110.43987,374.95835 110.05507,374.33573 z M 128.47719,347.11219 L 139.68389,332.36219 L 127.12765,332.36219 L 114.57141,332.36219 L 114.57141,342.7155 C 114.57141,348.40982 114.29183,355.94732 113.95011,359.4655 C 113.33113,365.83814 113.33621,365.85467 115.29964,363.86219 C 116.38361,362.76219 122.3135,355.22469 128.47719,347.11219 z M 535.0754,374.11219 C 534.83712,373.42469 533.98531,367.46219 533.18249,360.86219 C 532.37967,354.26219 531.57627,347.96219 531.39712,346.86219 C 531.08595,344.95149 531.62951,344.86219 543.57141,344.86219 L 556.07141,344.86219 L 555.82718,358.86219 C 555.69286,366.56219 555.36948,373.42469 555.10857,374.11219 C 554.77468,374.99197 551.80195,375.36219 545.07141,375.36219 C 538.31893,375.36219 535.38133,374.99484 535.0754,374.11219 z M 551.91721,363.11219 C 552.27043,358.57469 552.56212,353.39969 552.56542,351.61219 L 552.57141,348.36219 L 543.99195,348.36219 L 535.4125,348.36219 L 535.95163,351.11219 C 536.24814,352.62469 536.76193,356.56219 537.09339,359.86219 C 538.30947,371.96971 537.89165,371.36219 545.00265,371.36219 L 551.27498,371.36219 L 551.91721,363.11219 z M 573.50024,350.17256 C 566.7853,341.20186 560.17084,332.65155 558.80144,331.17189 C 557.43204,329.69222 556.54388,327.87634 556.82774,327.1366 C 557.11161,326.39685 563.45744,323.4224 570.92957,320.5267 C 590.03342,313.12333 588.67304,311.4787 588.3391,341.57404 C 588.14542,359.02757 587.74489,365.80529 586.89031,366.08976 C 586.24071,366.306 580.21518,359.14326 573.50024,350.17256 z M 584.35762,329.01504 L 584.07141,319.66789 L 573.32316,323.76504 C 567.41163,326.01847 562.57412,328.22651 562.57316,328.67179 C 562.57221,329.11707 567.40891,335.81516 573.32141,343.55642 L 584.07141,357.63145 L 584.35762,347.99682 C 584.51504,342.69777 584.51504,334.15597 584.35762,329.01504 z M 172.12037,342.75047 C 163.3473,341.43577 155.73887,339.92965 155.21275,339.40353 C 153.65796,337.84873 155.6583,336.2395 171.31166,326.45224 C 179.42953,321.37655 186.85047,316.7 187.80265,316.0599 C 191.0933,313.84779 192.3664,316.96734 193.56861,330.18861 C 194.77755,343.48382 194.33399,345.46662 190.19897,345.25151 C 189.02882,345.19064 180.89345,344.06517 172.12037,342.75047 z M 189.97628,332.11219 C 189.60943,327.02469 189.02998,322.33026 188.68861,321.68012 C 188.27826,320.89861 183.69028,323.25146 175.14946,328.62338 C 168.0443,333.09231 162.79702,336.93739 163.48884,337.168 C 164.65146,337.55554 186.44729,340.99445 189.35735,341.24949 C 190.3643,341.33774 190.49857,339.35542 189.97628,332.11219 z M 496.68944,337.00441 C 495.84418,335.98592 496.2075,331.17556 498.14338,317.75441 C 499.56282,307.91369 501.14481,299.42969 501.65891,298.90108 C 503.09732,297.42206 505.3586,300.3654 516.0814,317.67373 C 524.45397,331.18841 525.67314,333.68469 524.47416,334.85817 C 523.60696,335.70692 518.68086,336.63659 511.57141,337.29322 C 497.27331,338.61379 498.03742,338.62862 496.68944,337.00441 z M 518.75562,332.46518 C 520.16078,331.96209 519.10585,329.74159 512.38834,319.0628 C 507.96004,312.02313 504.206,306.39813 504.04605,306.5628 C 503.8861,306.72746 503.02684,312.03719 502.13661,318.36219 C 501.24636,324.68719 500.29558,330.87804 500.02377,332.11963 C 499.53196,334.36614 499.57206,334.3739 508.3005,333.72262 C 513.1245,333.36268 517.82931,332.79683 518.75562,332.46518 z M 533.22661,319.94275 C 521.09522,315.4936 516.9513,300.19477 525.21684,290.37174 C 531.77906,282.57298 543.81914,281.49253 551.56186,288.00761 C 561.42328,296.30543 559.86371,313.02271 548.68912,318.80132 C 544.42915,321.00424 537.51302,321.51479 533.22661,319.94275 z M 543.561,316.71427 C 550.71754,315.28296 555.58102,306.66018 553.91896,298.3499 C 553.00668,293.78855 547.67146,288.79371 542.89584,288.03006 C 531.38466,286.18935 522.3397,295.97003 525.57303,306.76194 C 527.94582,314.68155 534.79024,318.46842 543.561,316.71427 z M 152.2266,318.94275 C 140.09522,314.4936 135.95129,299.19477 144.21683,289.37174 C 150.77906,281.57298 162.81914,280.49253 170.56186,287.00761 C 180.42327,295.30543 178.86372,312.02271 167.68913,317.80132 C 163.42914,320.00424 156.51302,320.51479 152.2266,318.94275 z M 162.561,315.71427 C 169.71755,314.28296 174.58101,305.66018 172.91896,297.3499 C 172.00669,292.78855 166.67146,287.79371 161.89585,287.03006 C 150.38466,285.18935 141.3397,294.97003 144.57304,305.76194 C 146.94581,313.68155 153.79024,317.46842 162.561,315.71427 z M 201.26918,309.72662 C 200.88541,309.34285 200.57141,303.68973 200.57141,297.16414 C 200.57141,288.4354 200.91034,285.16936 201.85372,284.80735 C 202.559,284.53671 209.42149,284.66334 217.10372,285.08874 L 231.07141,285.86219 L 231.35784,295.6296 C 231.57093,302.89667 231.31495,305.51349 230.35784,305.85205 C 229.65031,306.10232 223.67141,306.96169 217.07141,307.76176 C 210.47142,308.56182 204.37291,309.48821 203.51919,309.8204 C 202.66546,310.1526 201.65295,310.11039 201.26918,309.72662 z M 217.07141,303.82388 C 227.97365,302.85441 227.57141,303.16199 227.57141,295.7948 L 227.57141,289.36219 L 224.32141,289.3562 C 222.53392,289.3529 217.35891,289.0612 212.82141,288.70798 L 204.57141,288.06576 L 204.57141,296.79343 L 204.57141,305.5211 L 207.32141,304.98372 C 208.83392,304.68817 213.22142,304.16624 217.07141,303.82388 z M 450.36277,306.37378 C 441.22279,303.61859 435.99035,293.94751 438.53227,284.50755 C 440.74798,276.27904 446.60301,272.04233 455.77036,272.03402 C 467.92796,272.02301 475.75569,282.53672 472.52435,294.53697 C 470.05078,303.72308 459.77557,309.21121 450.36277,306.37378 z M 460.25632,302.29558 C 466.54111,299.91433 470.47246,292.74113 469.04777,286.25456 C 466.74894,275.78802 452.12686,272.15965 445.23818,280.34637 C 436.1691,291.12437 447.19799,307.24324 460.25632,302.29558 z M 110.07351,304.98719 C 109.88694,304.36844 109.45356,292.75074 109.11044,279.17008 C 108.50295,255.12594 108.53938,254.44971 110.49849,253.40122 C 111.81135,252.6986 120.42541,252.4179 135.2909,252.59334 C 155.27808,252.82922 158.05802,253.05495 157.96219,254.43418 C 157.90212,255.29878 148.3643,267.28003 136.76703,281.05918 C 119.04148,302.11958 115.26129,306.11219 113.0469,306.11219 C 111.5981,306.11219 110.26007,305.60594 110.07351,304.98719 z M 132.31749,280.11219 C 142.14056,268.42469 150.51777,258.29969 150.93353,257.61219 C 151.52808,256.62903 147.51414,256.36219 132.13043,256.36219 L 112.57141,256.36219 L 112.57475,263.11219 C 112.57913,272.00223 113.80435,301.36219 114.17095,301.36219 C 114.32848,301.36219 122.49443,291.79969 132.31749,280.11219 z M 560.33062,280.85722 C 537.56483,261.72885 534.71797,259.01191 534.9026,256.58974 L 535.1105,253.86219 L 560.57586,253.07319 C 584.23298,252.34021 586.13232,252.40878 587.32422,254.0388 C 588.96782,256.28657 588.6804,301.49402 587.01898,302.04691 C 586.44014,302.23954 574.43037,292.70418 560.33062,280.85722 z M 584.57141,275.86219 L 584.57141,256.36219 L 578.82141,256.36525 C 575.65891,256.36693 565.36181,256.66076 555.93897,257.01821 L 538.80651,257.66812 L 560.93897,276.43361 C 573.11182,286.75464 583.40891,295.2358 583.82141,295.28065 C 584.23391,295.3255 584.57141,286.58719 584.57141,275.86219 z M 275.36278,290.37378 C 266.2228,287.61859 260.99036,277.94751 263.53227,268.50755 C 265.74798,260.27904 271.60301,256.04233 280.77036,256.03402 C 292.92796,256.02301 300.75568,266.53672 297.52436,278.53697 C 295.05078,287.72308 284.77557,293.21121 275.36278,290.37378 z M 285.25631,286.29558 C 291.54111,283.91433 295.47247,276.74113 294.04777,270.25456 C 291.74893,259.78802 277.12686,256.15965 270.23817,264.34637 C 261.16909,275.12437 272.19799,291.24324 285.25631,286.29558 z M 508.42268,288.59678 C 508.22949,288.1166 498.62142,280.57865 487.07141,271.84578 C 475.52142,263.11291 466.07141,255.49407 466.07141,254.91501 C 466.07141,254.19928 473.11522,253.97358 488.07141,254.2101 C 506.92534,254.50827 510.25364,254.7906 511.34567,256.1844 C 512.28234,257.37992 512.54727,261.92058 512.34567,273.32382 C 512.10734,286.80516 511.85549,288.87831 510.42268,289.15335 C 509.51588,289.32741 508.61589,289.07696 508.42268,288.59678 z M 508.57141,271.01555 L 508.57141,258.66891 L 492.441,257.97929 C 483.56928,257.6 476.11364,257.48664 475.87292,257.72736 C 475.53194,258.06832 507.29003,283.10945 508.32141,283.31288 C 508.45892,283.34 508.57141,277.8062 508.57141,271.01555 z M 181.1698,281.11219 C 172.36499,259.09283 171.49189,256.3793 172.56599,254.37233 C 173.62883,252.3864 174.36556,252.33463 197.86606,252.59451 C 217.97168,252.81685 222.07141,253.10245 222.07141,254.28073 C 222.07141,255.72331 185.33125,284.36219 183.48059,284.36219 C 182.92442,284.36219 181.88456,282.89969 181.1698,281.11219 z M 199.85673,267.61219 L 214.07141,256.86219 L 204.32141,256.57598 C 198.95892,256.41856 190.3652,256.41856 185.22426,256.57598 L 175.87711,256.86219 L 179.97426,267.61044 C 182.2277,273.52198 184.42481,278.35948 184.85673,278.36044 C 185.28866,278.3614 192.03866,273.52469 199.85673,267.61219 z M 330.98159,263.62213 C 325.08977,255.5151 320.22468,248.20282 320.17029,247.37262 C 320.00105,244.78896 323.48353,245.21527 342.56604,250.11419 C 355.94325,253.54843 361.14138,255.29316 361.3523,256.41972 C 361.78795,258.74648 345.92124,278.36219 343.60353,278.36219 C 342.29506,278.36219 338.32219,273.72264 330.98159,263.62213 z M 356.31296,257.77041 C 355.76435,257.22179 327.30835,250.29192 326.97461,250.62565 C 326.78157,250.8187 328.84405,254.02231 331.55788,257.7448 C 334.2717,261.46728 338.09932,266.75006 340.06369,269.48431 L 343.63525,274.45567 L 350.10499,266.24393 C 353.66335,261.72747 356.45694,257.91439 356.31296,257.77041 z M 388.57141,270.27512 C 383.89642,266.41603 378.60891,262.60086 376.82141,261.79697 C 375.03391,260.99308 373.57141,259.99866 373.57141,259.58716 C 373.57141,257.96086 388.83918,242.36219 390.43098,242.36219 C 391.96473,242.36219 396.52757,246.70363 408.046,259.12247 L 411.99738,263.38274 L 405.06122,270.37247 C 401.24633,274.21681 397.88798,277.34632 397.59824,277.32692 C 397.30848,277.30753 393.24642,274.13422 388.57141,270.27512 z M 402.55394,267.87999 L 406.95289,263.39779 L 399.01215,255.12999 C 394.64474,250.5827 390.84641,246.8042 390.57141,246.73332 C 390.29641,246.66244 387.69145,249.19357 384.7826,252.35805 L 379.49379,258.11164 L 388.2826,265.19921 C 393.11646,269.09737 397.31523,272.30374 397.6132,272.32448 C 397.91119,272.34522 400.13452,270.3452 402.55394,267.87999 z "
       id="path2170" />
  </g>
</svg>
